<?xml version="1.0" standalone="no"?>
<!DOCTYPE svg PUBLIC "-//W3C//DTD SVG 20010904//EN"
 "http://www.w3.org/TR/2001/REC-SVG-20010904/DTD/svg10.dtd">
<svg version="1.0" xmlns="http://www.w3.org/2000/svg"
 width="754.000000pt" height="745.000000pt" viewBox="0 0 754.000000 745.000000"
 preserveAspectRatio="xMidYMid meet">

<g transform="translate(0.000000,745.000000) scale(0.100000,-0.100000)"
fill="#000000" stroke="none">
<path d="M3408 6917 c-18 -15 -28 -32 -28 -50 0 -37 -36 -36 -85 3 -65 51
-100 56 -223 32 -153 -30 -340 -94 -512 -175 -36 -16 -74 -33 -85 -37 -75 -27
-223 -111 -256 -145 -21 -21 -36 -41 -34 -43 2 -3 31 11 64 31 90 54 203 89
299 95 57 3 82 1 82 -7 0 -6 -9 -11 -20 -11 -11 0 -20 -4 -20 -8 0 -4 -13 -13
-29 -19 -21 -7 -30 -19 -33 -38 -3 -27 -18 -39 -93 -69 -50 -21 -249 -152
-485 -319 -126 -90 -92 -59 -514 -462 -207 -198 -306 -311 -484 -560 -89 -125
-145 -229 -196 -361 -19 -51 -44 -112 -55 -137 -12 -25 -21 -51 -21 -56 0 -6
-43 -57 -96 -113 -114 -122 -133 -150 -168 -246 -38 -108 -36 -131 18 -165 25
-15 60 -31 79 -34 l34 -5 -24 -60 c-40 -97 -27 -108 36 -32 32 39 57 62 62 57
10 -10 14 -53 24 -262 7 -131 25 -233 70 -391 36 -129 113 -368 130 -405 8
-16 23 -65 35 -108 11 -44 27 -91 34 -106 8 -15 18 -45 21 -66 4 -22 12 -49
18 -60 6 -11 12 -25 13 -32 5 -28 57 -178 78 -226 13 -28 27 -63 31 -77 13
-42 49 -90 72 -96 11 -3 31 -1 42 6 30 15 27 8 -23 -60 -57 -78 -78 -142 -77
-233 3 -131 7 -151 43 -208 19 -30 40 -69 46 -88 19 -53 84 -133 226 -276 157
-158 280 -261 464 -387 154 -106 182 -122 232 -131 l35 -7 -25 20 c-14 11 -65
44 -115 74 -279 169 -545 437 -639 647 -24 53 -40 131 -30 142 13 12 89 -54
249 -216 199 -200 198 -199 335 -303 58 -43 107 -81 110 -85 9 -10 191 -133
270 -181 100 -60 407 -218 427 -218 8 0 27 -6 41 -14 42 -22 129 -56 145 -56
11 0 81 -33 121 -58 5 -3 1 -9 -10 -13 -36 -14 -143 -9 -251 12 -104 20 -335
96 -380 125 -13 8 -23 12 -23 9 0 -4 -10 1 -22 9 -12 9 -27 16 -33 16 -5 0 7
-11 27 -25 20 -14 41 -25 47 -25 5 0 11 -4 13 -8 5 -13 98 -72 114 -72 7 0 14
-4 14 -9 0 -5 8 -11 18 -15 9 -3 24 -9 32 -14 14 -9 43 -22 120 -55 19 -8 80
-29 135 -47 55 -18 119 -38 142 -46 118 -38 559 -111 763 -126 117 -8 185 -8
280 0 69 7 201 12 293 12 259 0 395 36 637 168 75 41 293 132 316 132 6 0 33
9 60 21 27 11 59 25 72 30 12 5 32 13 45 18 12 6 46 20 75 32 58 24 97 68 87
98 -3 11 -1 22 5 26 5 3 10 15 10 25 0 23 77 188 96 207 19 19 26 0 24 -60 -2
-29 -2 -57 -1 -63 2 -19 54 -24 78 -8 28 18 89 143 106 219 9 38 20 62 32 69
11 6 26 20 34 30 8 11 22 27 30 35 9 9 26 30 39 46 13 17 38 46 56 65 40 44
103 134 111 160 4 11 11 20 16 20 5 0 9 8 9 18 0 9 9 31 20 47 11 17 20 37 20
46 0 9 6 22 14 28 8 7 17 22 20 34 3 13 13 41 23 63 9 21 18 46 19 54 3 23 24
73 38 90 7 8 20 35 30 60 10 25 27 68 38 95 12 28 24 59 28 70 4 11 17 40 28
65 11 25 28 65 38 90 10 25 23 54 31 65 7 11 13 29 13 40 1 11 29 94 64 185
44 114 61 171 56 185 -4 11 -3 31 2 45 5 14 11 39 13 55 4 38 14 69 51 152 11
24 21 43 24 43 3 0 28 -63 55 -141 27 -77 59 -157 72 -177 l22 -37 1 65 0 65
25 -59 c13 -32 29 -64 34 -69 20 -20 11 -58 -19 -85 -20 -19 -37 -52 -55 -107
-14 -44 -33 -96 -41 -115 -29 -65 -33 -75 -58 -142 -14 -36 -26 -71 -26 -77 0
-26 40 -7 88 41 119 121 203 372 219 653 l5 100 -23 -34 c-41 -60 -45 -51 -41
86 3 71 0 211 -6 313 -7 102 -14 284 -17 405 -3 121 -10 247 -15 280 -5 33
-11 123 -14 200 -6 172 -38 569 -52 636 -3 15 -18 38 -34 53 -36 31 -55 76
-71 159 -13 68 -40 147 -51 147 -8 0 -6 -41 12 -223 12 -120 12 -140 -1 -147
-9 -6 -18 -5 -26 3 -15 16 -115 209 -211 407 -18 36 -48 92 -67 125 -19 33
-38 67 -42 75 -27 58 -254 380 -313 445 -20 22 -49 58 -65 80 -16 21 -36 47
-45 56 -8 9 -35 40 -60 69 -25 29 -57 66 -72 82 -16 16 -28 33 -28 38 0 6 -5
10 -10 10 -6 0 -39 29 -75 65 -35 36 -68 65 -74 65 -6 0 -11 4 -11 10 0 5 -12
13 -27 16 -16 4 -33 14 -40 23 -10 13 -14 14 -25 3 -11 -11 -9 -17 10 -32 12
-10 22 -23 22 -29 0 -6 5 -11 10 -11 6 0 10 -9 10 -19 0 -11 5 -23 10 -26 6
-4 8 -11 4 -16 -9 -14 -144 97 -144 119 0 7 -4 12 -8 12 -5 0 -19 8 -30 18
-26 23 -23 46 14 119 30 60 30 108 0 108 -15 0 -22 -11 -31 -53 -15 -63 -41
-89 -101 -98 -62 -9 -77 -1 -72 39 3 17 8 39 12 48 10 23 -24 53 -93 80 -31
13 -67 29 -80 38 -30 19 -120 50 -146 51 -12 0 -25 4 -30 9 -9 8 -108 37 -205
61 -47 12 -248 47 -335 59 -141 20 -462 23 -574 6 -120 -18 -240 -55 -292 -91
-41 -28 -59 -29 -125 -8 -77 26 -77 20 0 110 l28 34 -23 0 c-13 -1 -36 -11
-51 -23z m-85 -139 c8 -27 1 -38 -24 -38 -22 0 -26 29 -7 48 17 17 25 15 31
-10z m1706 -183 c50 -25 150 -120 151 -142 0 -7 -9 -21 -21 -32 -18 -16 -49
-65 -49 -77 0 -2 7 -1 16 3 18 7 59 -29 81 -72 18 -33 27 -126 43 -440 6 -115
20 -313 30 -440 11 -126 22 -297 25 -380 9 -245 25 -449 36 -471 7 -14 7 -43
1 -91 -6 -38 -6 -90 -2 -114 4 -24 6 -66 5 -94 -2 -27 1 -70 6 -95 4 -25 15
-191 24 -370 9 -179 23 -399 30 -490 15 -181 28 -227 98 -329 47 -68 51 -84
32 -121 -13 -25 -191 -285 -215 -312 -3 -4 -5 7 -5 25 0 17 -4 38 -9 45 -5 7
-10 40 -11 75 -2 69 -17 115 -40 123 -8 4 -15 13 -15 21 0 8 -6 13 -13 10 -7
-3 -21 1 -32 9 -10 8 -28 14 -40 14 -11 0 -52 16 -90 36 -68 35 -138 87 -315
235 -111 92 -354 277 -455 347 -44 30 -93 66 -110 79 -16 13 -73 51 -125 85
-52 33 -111 73 -131 89 -61 48 -397 238 -609 345 -388 194 -861 372 -1255 471
-82 20 -246 15 -273 -10 -10 -9 -33 -17 -51 -17 -25 0 -41 10 -78 50 -41 45
-73 63 -128 73 -38 8 -85 29 -85 39 0 12 26 39 32 32 3 -2 25 0 49 5 42 9 305
2 517 -15 61 -5 86 -4 91 5 12 19 133 15 266 -9 178 -32 191 -33 222 -23 31
11 141 -11 307 -61 49 -14 114 -29 145 -32 102 -11 455 -122 666 -209 79 -33
229 -84 246 -85 3 0 12 19 19 43 8 23 24 60 36 82 12 22 92 186 177 365 86
179 162 339 171 355 29 56 17 60 -34 12 -40 -36 -90 -101 -90 -115 0 -6 -3
-12 -7 -14 -8 -3 -40 -85 -50 -125 -4 -17 -1 -23 11 -23 26 0 19 -12 -32 -56
-71 -61 -170 -266 -124 -256 27 5 9 -20 -38 -54 -51 -36 -59 -51 -39 -71 20
-20 1 -50 -37 -58 -29 -5 -44 -1 -83 24 -165 106 -356 177 -742 275 -232 59
-280 68 -528 96 -305 34 -400 49 -546 86 -172 43 -175 44 -175 60 0 46 86 151
152 185 50 26 197 121 252 163 25 19 105 67 178 108 144 81 226 126 523 285
131 70 898 449 925 458 14 4 48 17 75 30 28 12 68 28 90 35 22 7 94 36 160 65
155 68 312 132 450 184 173 64 184 72 237 170 21 38 42 39 107 6z m-1994 -505
c4 -6 -8 -23 -26 -38 -51 -42 -99 -96 -99 -109 0 -20 41 -15 80 9 27 16 52 22
110 23 41 1 99 9 129 18 88 27 107 19 48 -20 -53 -36 -156 -64 -204 -57 -58 8
-87 0 -131 -40 -76 -68 -242 -150 -242 -120 0 3 9 18 21 32 67 88 79 107 79
131 0 33 90 119 162 155 58 29 64 30 73 16z m55 -290 c0 -5 -7 -10 -16 -10 -8
0 -30 -11 -48 -25 -55 -42 -78 -26 -31 20 25 25 95 36 95 15z m2568 -544 c50
-32 66 -52 86 -111 28 -79 31 -105 13 -105 -11 0 -20 15 -27 43 -17 63 -64
131 -105 150 -34 16 -42 27 -28 40 11 11 21 8 61 -17z m-37 -141 c10 -22 19
-51 19 -64 0 -20 -2 -21 -15 -11 -8 7 -15 20 -15 29 0 9 -9 34 -20 56 -11 22
-20 43 -20 48 0 19 34 -19 51 -58z m68 -674 c9 -6 10 -10 2 -16 -16 -9 -44 2
-36 15 8 12 16 12 34 1z m-3162 -65 c15 -8 66 -26 113 -41 47 -15 108 -37 135
-50 28 -12 61 -26 75 -30 37 -11 169 -76 175 -85 8 -12 -64 9 -110 33 -22 11
-85 38 -140 59 -55 22 -122 49 -150 60 -27 11 -70 26 -95 34 -24 8 -49 19 -54
24 -15 15 17 12 51 -4z m2888 -116 c-12 -91 -25 -78 -24 25 0 100 0 100 15 60
10 -26 13 -56 9 -85z m-3124 91 c35 -11 93 -27 129 -36 102 -26 260 -91 328
-135 33 -22 66 -40 71 -40 12 0 61 -63 61 -78 0 -19 -36 -32 -90 -32 -66 0
-277 -66 -385 -120 -44 -22 -84 -40 -90 -40 -23 -1 -54 -39 -57 -71 -3 -31
-12 -16 -91 142 -83 165 -87 178 -81 219 11 70 38 106 91 124 26 9 58 16 72
16 l25 0 -27 28 c-24 25 -34 42 -23 42 2 0 32 -9 67 -19z m3194 -155 c4 -41 4
-80 -1 -88 -13 -21 -22 28 -22 127 0 103 12 83 23 -39z m398 96 c8 -9 20 -30
26 -45 15 -38 17 -205 3 -219 -16 -16 -59 -1 -67 24 -13 41 -15 212 -3 236 14
27 20 27 41 4z m-4019 -65 c9 -7 19 -27 22 -44 5 -28 3 -33 -12 -34 -40 -2
-69 2 -133 20 -50 14 -93 48 -70 55 8 2 21 7 29 9 30 10 149 5 164 -6z m5136
-53 c0 -16 -16 -19 -25 -4 -8 13 4 32 16 25 5 -4 9 -13 9 -21z m-4948 -109
c20 -27 44 -69 54 -93 9 -25 31 -70 48 -101 62 -111 79 -214 20 -124 -46 70
-73 121 -94 172 -10 25 -34 73 -54 105 -61 101 -42 130 26 41z m1012 -124 c10
-16 -5 -41 -25 -41 -21 0 -25 20 -7 38 14 14 25 15 32 3z m2852 -374 c-15 -30
-39 -67 -52 -83 -25 -28 -25 -29 -18 -4 9 32 85 153 92 146 2 -3 -8 -30 -22
-59z m-2966 -511 c0 -9 -72 -78 -76 -73 -8 8 49 77 64 77 6 0 12 -2 12 -4z
m2194 -575 c5 -8 36 -241 36 -273 0 -11 -16 -26 -41 -38 -26 -14 -44 -31 -51
-51 -5 -16 -15 -29 -21 -30 -79 -8 -77 -8 -102 31 -13 21 -34 42 -47 46 -47
15 -98 56 -98 80 0 12 -4 26 -10 29 -5 3 -10 15 -10 25 0 14 12 23 43 32 23 6
46 18 50 26 5 7 20 18 35 23 20 8 23 12 13 18 -10 7 -7 13 13 26 15 10 29 15
33 12 3 -4 24 4 47 17 22 12 46 21 53 19 6 -2 14 1 18 6 8 13 32 14 39 2z
m-3124 -626 c0 -19 -11 -19 -36 0 -18 14 -18 14 9 15 17 0 27 -5 27 -15z
m-722 -64 c8 -4 12 -19 10 -32 -3 -22 -8 -24 -53 -24 -51 0 -65 14 -51 51 6
16 72 19 94 5z"/>
<path d="M4957 6158 c-44 -56 -59 -95 -17 -48 30 35 65 90 56 90 -3 0 -20 -19
-39 -42z"/>
<path d="M4734 5806 c-18 -20 -80 -138 -86 -163 -4 -13 -2 -25 2 -28 8 -5 91
142 105 185 7 23 -4 26 -21 6z"/>
<path d="M4575 5502 c-14 -21 -39 -48 -55 -60 -34 -25 -63 -79 -90 -161 -11
-35 -14 -57 -7 -60 13 -5 37 28 90 124 24 44 59 106 76 138 37 64 25 78 -14
19z"/>
<path d="M2134 6485 c-18 -13 -18 -14 4 -8 12 3 25 9 28 14 8 14 -10 11 -32
-6z"/>
<path d="M2035 6459 c-33 -18 -118 -69 -188 -115 -70 -46 -131 -84 -136 -84
-5 0 -15 -7 -22 -16 -7 -9 -39 -34 -71 -55 -64 -44 -80 -57 -186 -155 -39 -37
-70 -70 -67 -72 3 -3 18 6 33 19 48 44 228 173 351 251 45 29 94 60 106 68 13
8 66 41 117 72 119 73 139 90 130 105 -6 9 -23 4 -67 -18z"/>
<path d="M2158 748 c17 -6 32 -15 32 -19 0 -5 8 -9 18 -9 12 0 8 6 -13 20 -16
11 -39 19 -50 19 -13 -1 -9 -4 13 -11z"/>
</g>
</svg>
